{"asset":{"version":"2.0","generator":"Blockbench 4.10.4 glTF exporter"},"scenes":[{"nodes":[4],"name":"blockbench_export"}],"scene":0,"nodes":[{"name":"cuboid","mesh":0},{"name":"sphere","mesh":1},{"rotation":[0.038101126695894494,-0.04598212036635122,0.29666535328458943,0.9531125940368471],"translation":[0,1.078125,0],"name":"cylinder","mesh":2},{"rotation":[-0.01028312274915298,0.11631075908265415,-0.11908746091400627,0.9859940371833888],"translation":[0,1.078125,0],"name":"cylinder","mesh":3},{"children":[0,1,2,3]}],"bufferViews":[{"buffer":0,"byteOffset":0,"byteLength":480,"target":34962,"byteStride":12},{"buffer":0,"byteOffset":480,"byteLength":480,"target":34962,"byteStride":12},{"buffer":0,"byteOffset":960,"byteLength":320,"target":34962,"byteStride":8},{"buffer":0,"byteOffset":1280,"byteLength":120,"target":34963},{"buffer":0,"byteOffset":1400,"byteLength":1320,"target":34962,"byteStride":12},{"buffer":0,"byteOffset":2720,"byteLength":1320,"target":34962,"byteStride":12},{"buffer":0,"byteOffset":4040,"byteLength":880,"target":34962,"byteStride":8},{"buffer":0,"byteOffset":4920,"byteLength":300,"target":34963},{"buffer":0,"byteOffset":5220,"byteLength":720,"target":34962,"byteStride":12},{"buffer":0,"byteOffset":5940,"byteLength":720,"target":34962,"byteStride":12},{"buffer":0,"byteOffset":6660,"byteLength":480,"target":34962,"byteStride":8},{"buffer":0,"byteOffset":7140,"byteLength":144,"target":34963},{"buffer":0,"byteOffset":7284,"byteLength":720,"target":34962,"byteStride":12},{"buffer":0,"byteOffset":8004,"byteLength":720,"target":34962,"byteStride":12},{"buffer":0,"byteOffset":8724,"byteLength":480,"target":34962,"byteStride":8},{"buffer":0,"byteOffset":9204,"byteLength":144,"target":34963}],"buffers":[{"byteLength":9348,"uri":"data:application/octet-stream;base64,"}],"accessors":[{"bufferView":0,"componentType":5126,"count":40,"max":[0.5,1,0.375],"min":[-0.5,0,-0.375],"type":"VEC3"},{"bufferView":1,"componentType":5126,"count":40,"max":[1,1,1],"min":[-1,-1,-1],"type":"VEC3"},{"bufferView":2,"componentType":5126,"count":40,"max":[0.71875,0.75],"min":[0,0],"type":"VEC2"},{"bufferView":3,"componentType":5123,"count":60,"max":[39],"min":[0],"type":"SCALAR"},{"bufferView":4,"componentType":5126,"count":110,"max":[0.125,1.109375,0.11888206750154495],"min":[-0.125,1,-0.11888206750154495],"type":"VEC3"},{"bufferView":5,"componentType":5126,"count":110,"max":[0.9510565400123596,0.9937581419944763,1],"min":[-0.9510565400123596,0,-1],"type":"VEC3"},{"bufferView":6,"componentType":5126,"count":110,"max":[0.640625,0.6383453011512756],"min":[0.10568749904632568,0.515625],"type":"VEC2"},{"bufferView":7,"componentType":5123,"count":150,"max":[109],"min":[0],"type":"SCALAR"},{"bufferView":8,"componentType":5126,"count":60,"max":[0.020459391176700592,0.390625,0.015625],"min":[-0.020459391176700592,0.015625,-0.015625],"type":"VEC3"},{"bufferView":9,"componentType":5126,"count":60,"max":[0.8366420865058899,1,1],"min":[-0.8366420865058899,-1,-1],"type":"VEC3"},{"bufferView":10,"componentType":5126,"count":60,"max":[0.484375,0.640625],"min":[0.09375,0.5],"type":"VEC2"},{"bufferView":11,"componentType":5123,"count":72,"max":[59],"min":[0],"type":"SCALAR"},{"bufferView":12,"componentType":5126,"count":60,"max":[0.020459391176700592,0.390625,0.015625],"min":[-0.020459391176700592,0.015625,-0.015625],"type":"VEC3"},{"bufferView":13,"componentType":5126,"count":60,"max":[0.8366420865058899,1,1],"min":[-0.8366420865058899,-1,-1],"type":"VEC3"},{"bufferView":14,"componentType":5126,"count":60,"max":[0.6379281282424927,0.640625],"min":[0.21875,0.515625],"type":"VEC2"},{"bufferView":15,"componentType":5123,"count":72,"max":[59],"min":[0],"type":"SCALAR"}],"materials":[{"pbrMetallicRoughness":{"metallicFactor":0,"roughnessFactor":1,"baseColorTexture":{"index":0}},"alphaMode":"MASK","alphaCutoff":0.05,"doubleSided":true}],"textures":[{"sampler":0,"source":0,"name":"texture"}],"samplers":[{"magFilter":9728,"minFilter":9728,"wrapS":33071,"wrapT":33071}],"images":[{"mimeType":"image/png","uri":"data:image/png;base64,"}],"meshes":[{"primitives":[{"mode":4,"attributes":{"POSITION":0,"NORMAL":1,"TEXCOORD_0":2},"indices":3,"material":0}]},{"primitives":[{"mode":4,"attributes":{"POSITION":4,"NORMAL":5,"TEXCOORD_0":6},"indices":7,"material":0}]},{"primitives":[{"mode":4,"attributes":{"POSITION":8,"NORMAL":9,"TEXCOORD_0":10},"indices":11,"material":0}]},{"primitives":[{"mode":4,"attributes":{"POSITION":12,"NORMAL":13,"TEXCOORD_0":14},"indices":15,"material":0}]}]}